<svg xmlns="http://www.w3.org/2000/svg" id="Layer_1" viewBox="0 0 150 150"><metadata></metadata><defs><style>      .st0 {        fill: #fff;      }      .st1 {        fill: #d59d33;      }      .st2 {        fill: #f3e1be;      }      .st3 {        fill: #191717;      }      .st4 {        fill: #655035;      }    </style></defs><g id="Generative_Object"><g><path class="st3" d="M78.42,3.39l.76.15,44.41,25.35v37.07c3.06,1.53,12.03,6.08,12.56,9.68.8,5.44-8.45,9.8-12.71,10.74l.15,32.38-44.72,25.8-45.02-25.65-.15-32.54c-3.12-1.13-6.39-2.17-9-4.31-9.64-7.89,2.99-12.63,9-16.12V28.89L78.42,3.39Z"></path><g><path class="st1" d="M80.16,48.49c.24.07.14,0,.15,0,.83.2.78,0,.83,0,.05,0,.16.45.3.45s.25-.45.3-.45c.11,0,1.68,1.41,1.51.45,1.21.88,2.44,1.01,3.78,2.12,1.51,1.24,3.67,4.93,4.01,6.58.11.54-.25,1.75.15,2.42-.28.42-1.56-.77-1.74-.83-.21-.07-.41.32-.45.3-.47-.15-1.64-1.1-2.12-.91-.4.16-.29,1.12-.38,1.29-.1.19-.55-.22-.61.15-.03.2.35.72.3,1.06-.04.3-.26.7-.3,1.13-4.86,5.05-10.29,5.32-14.68-.45-.12-.6-.69-3.15-1.13-3.33-.03-.01-.38.3-.53.3-.33,0-.73.31-.76-.08,3.96-4.49,7.53-7.33,13.85-5.07,3.62,1.3,3.15,3.1,4.99,4.69,2.18,1.88.22-2.93-.23-3.71-2.21-3.82-7.39-6.11-11.58-4.77s-7.09,5.31-7.79,9.38c-1,.01-.74.54-1.74.91-.18.22-.53-.77-.53-.83,0-.15.45-.25.45-.3.04-.43-.31-.57-.3-.61.05-.3,1.34-3.77,1.51-4.09,1.73-3.1,4.46-4.49,7.34-5.22.38-.1.71-.44.76-.45.28-.06.26.44.45.45.06,0,.36-.44.45-.45.32-.07.43.19.61.15.13-.03.06-.3.08-.3.08-.02.23.03.3,0,.83-.27,1.21-.75,1.29-.76.08,0,.68.52,1.44.76Z"></path><path class="st4" d="M85.91,64.53c.56.69,1.27,1.26,1.82,1.97-.45.59-.33,1.39-.61,2.04-.18.42-.47-.13-.61.23-.09.24-.02,2.26-.38,2.27-.67-.89-.27-2.18-.38-3.25-.86,1.31-.49,4.01-1.51,5.3l.08-.83-.68.98c.35-.85,1.03-2.23.83-3.1l-1.82,3.78.15-1.21-1.13,1.44-.3-.15.23-1.44c-.45.81-.91,2.81-.76.61-.23-.06-.76,2.9-.91.15-.9,2.75-.86.6-1.06.45-.45-.33-.6,1.71-.76,0-.62,1.72-.57-.14-.91-.15-.51-.01.2,2.34-1.51-.91l.15,1.66-1.21-2.12.38,1.74-1.29-2.04.45,1.97-1.82-3.63,1.13,3.25c-1.48-1.65-1.68-3.95-1.97-6.05-.44,1.43.36,2.86.23,4.31l-.76-2.57.08,2.19c-.68-.63-.36-2.06-.61-2.88-.07-.24-.41.15-.45,0-.7-2.3-.51-2.46,1.36-4.01,1.57,7.18,13.68,6.14,14.53,0Z"></path><path class="st0" d="M69.57,58.78c-.76.97-1.13.45-1.51.45.7-4.07,3.8-8.1,7.79-9.38s9.37.95,11.58,4.77c.45.78,2.41,5.59.23,3.71-1.85-1.59-1.37-3.39-4.99-4.69-6.31-2.26-9.89.58-13.85,5.07.02.38.42.07.76.08Z"></path><path class="st1" d="M85.91,62.26c-.08.79.06,1.85,0,2.27-.85,6.14-12.96,7.18-14.53,0-.15-.67,0-1.95-.15-2.72,4.39,5.77,9.82,5.5,14.68.45Z"></path><path class="st1" d="M85,45.61c.12.17.84.74,1.06.91.6.45.9.41,1.51.68-.11.4-.53.56-.76.83-2.76-.88-5.33-2.77-8.1-3.33l-8.25,3.63c-1.47-1.63-.1-1.04,1.21-2.12.05-.04.58-.57.61-.61-.13.4.46.18.53.15,3.18-1.53,3.88-4.64,8.02-2.57,1.31.66,2.68,2.56,4.16,2.42Z"></path><path class="st1" d="M86.82,48.03c-.17.21-.61,1.02-.83,1.06-.3.06-.86-.45-.91-.45-.05,0-.26.31-.3.3-.09-.02-.36-.44-.45-.45-.04,0-.27.31-.3.3-.06-.01-.7-.59-.76-.61-.3-.07-.21.32-.3.3-.07-.02-.12-.41-.3-.45-.13-.03-.81-.11-1.06-.15-.1-.02-.05.31-.15.3-.1-.01-1.26-1.31-1.13.3,0,0,.09.07-.15,0,.37-.55-1.32-1.36-1.44-1.36-.05,0-.63.55-.76.61-.07.03-.94-.78-.53.76-.08.03-.22-.02-.3,0,.14-1.58-.71-.51-1.13-.45-1.01.14-2.63.32-3.33.61-.3.12-.18.57-.3.61-.11.03-.26-.45-.3-.45-.82-.09-.55.69-1.59-.45l8.25-3.63c2.76.56,5.33,2.45,8.1,3.33Z"></path><path class="st1" d="M97.03,36.99c1.13-.36,1.51,1.71,1.44,2.5-.06.62-2.44,6.29-2.95,6.13-.1-.7-1.11-1.3-1.13-1.89s2.19-6.59,2.65-6.73Z"></path><path class="st1" d="M59.66,36.84c1.15-.24,3.26,6.13,3.1,7.04-.07.4-.84.75-.83,1.29-.35-.46-.65-.07-.83-.23-.83-.71-3.53-7.21-1.44-8.1Z"></path><path class="st0" d="M63.67,43.64h-.3c-.79-1.17-1.7-7.87-4.01-7.11-.16.05-.79,1.11-.83,1.29-.48,1.82.78,4.74,1.66,6.36.2.37,1.6,2.02,1.29,2.19-1.62-1.47-3.52-4.66-3.56-6.89-.03-1.76,1.04-2.52.61-4.54-.28-1.29-1.41-2.72-2.57-3.33l.98.23c1.55,1.19,1.89,2.72,2.27,4.54,1.25-1.96-1.1-5.33-3.4-5.22,1.13-.85,3.16.83,3.63,1.82s.3,2.71.45,3.03c.04.08,1.08.51,1.51,1.06.69.86,2.42,5.53,2.27,6.58Z"></path><path class="st1" d="M104.98,59.38l-4.69,1.51c-1.08-.93,7.89-9.49,4.69-1.51Z"></path><path class="st0" d="M106.04,55.15c0,.42.82,1.41.61,2.04.41.5,4.91-1.72,4.54-3.33-.57-2.47-4.41,1.09-5.15,1.29,0-1.04,3.68-3.33,4.84-2.35,1.61,1.37.15,2.87-1.13,3.71-.64.42-2.92,1.09-3.03,1.21-.07.08-.21,1.49-.53,2.04-.67,1.15-3.49,2.42-4.84,1.97,2.01-.3,4.55-1.13,4.84-3.48.43-3.44-1.49-3.09-3.56-1.44-1.47,1.18-2.08,2.95-3.25,4.31,1.02-2.81,2.76-5.15,5.67-6.13.38-.13.8.2.98.15Z"></path><path class="st1" d="M56.55,60.59c-1.66-.85-3.54-1.25-4.99-2.72-.06-.76-.38-1.63.38-2.27,2.06,1.21,3.65,2.8,4.62,4.99Z"></path><path class="st1" d="M66.54,49.4c-.31.1-.15.34-.53.15-.16-.08-2.41-2.42-2.5-2.57-.46-.82.16-2.72.83-2.57.21.04,1.89,3.29,2.04,3.71s.07,1.01.15,1.29Z"></path><path class="st4" d="M56.55,60.59c.17.09.59.37.53.61-1.2.35-4.94-.64-5.37-1.74-.16-.41-.12-1.15-.15-1.59,1.46,1.47,3.33,1.88,4.99,2.72Z"></path><path class="st4" d="M66.54,49.4c.18.59,1.02,1.65.68,2.42-.36.3-4.33-3.79-3.71-4.84.09.16,2.34,2.49,2.5,2.57.38.19.22-.05.53-.15Z"></path><path class="st4" d="M86.52,68.77c.13-.36.43.2.61-.23.27-.65.16-1.46.61-2.04.1.14.71.51.76.68.09.34-.42,2.1-.61,2.42-.26.46-.95.3-.98,1.13l-.38-1.97Z"></path><path class="st4" d="M100.29,60.9l4.69-1.51c-.13.31.16.5.15.53-.63,1.28-3.65,1.49-4.84.98Z"></path><path class="st0" d="M62.38,46.22l3.93,6.66c-1.05-1.41-2.6-2.91-3.4-4.46-.13-.25-1.11-2.09-.53-2.19Z"></path><path class="st0" d="M113.53,49.24c.56-.11,1.65.02,1.89.68-2.07-.73-3.47,1.07-4.46,2.65-.08-1.14,1.55-3.14,2.57-3.33Z"></path><path class="st0" d="M101.12,30.48c.14,0,.66.06.61.3-2.74.15-3.91,2.88-3.93,5.3-.89-1.92,1.22-5.57,3.33-5.6Z"></path><path class="st0" d="M114.74,50c.21.02.25.08.38.23-1.8.34-2.55,1.78-3.56,3.1-.03-1.24,2.06-3.43,3.18-3.33Z"></path><g><polygon class="st1" points="78.57 6.12 121.17 30.25 121.1 65.28 120.57 65.21 120.41 30.56 78.72 6.87 36.73 30.71 36.73 65.21 36.13 65.21 36.13 30.1 78.57 6.12"></polygon><path class="st0" d="M42.56,50.15c1.34.1,2.67,1.73,2.88,3.03-.8-1.2-1.69-2.2-2.88-3.03Z"></path></g><path class="st0" d="M57.99,60.29c1.31-.11,2.6.31,3.71.98l-3.71-.98Z"></path><path class="st0" d="M98.55,60.14c.39,0,1.29.23.61.45-.83.27-2.71.1-3.71.68.71-.52,2.24-1.12,3.1-1.13Z"></path><path class="st4" d="M87.8,50.15c.98,0-.15.72-.45.91-.21-.23.37-.91.45-.91Z"></path><g><g><path class="st2" d="M56.25,70.73c-.21.23-.74.63-.76.68-.17.49.65,2.82.53,3.56.62-1.15,4.41-3.73,4.77-4.54.76-.61,2.01-1.52,2.57-2.27,1.43-1.32,2.98-3.35,4.69-4.31.12-.07.5-.37.45,0-2.36,2.01-4.36,4.47-6.2,6.96-2.83,3.81-6.03,10.83-9.76,13.24-5.13,3.31-10.52,2.91-16.34,1.97-1.74-.28-3.43-.96-5.15-1.36l-.23-.23c.97-2.17,2.47-4.04,3.93-5.9.73-.92,4.24-5.21,5.07-5.22.3,0,5.59,1.1,5.9,1.21s2.36,1.66,2.35,1.89c-1.92,1.74-4.71,1.67-6.89,3.1-1.15.75-4.01,4.21-3.71,5.52.23,1.01,1.33-2.28,1.51-2.57,1.5-2.47,4.36-3.66,7.04-4.31-.46.43-4.71,8.08-3.18,8.02,1.38-7.49,7.73-11.29,13.39-15.44Z"></path><path class="st2" d="M32.34,67.71c.63.53-.06.71.76.61,2.09-.26,5.43-2.34,7.79-2.57,2.52-.25,3.28.94,5.3,1.21,1.52.2,3.43-.15,4.99,0l.23.23c0,.31-5.12,2.73-5.52,2.8-3.42.57-6.18-.36-9.23-.61-2.59-.21-6.98.71-9.53,1.36-.21.44.04.23.23.23.77-.01,2-.57,2.8-.68,8.4-1.18,16,2.81,23.3-3.78l17.1-4.54v.45c-9.11,1.87-17.12,6.68-24.82,11.65-2.96-.68-6.19-.18-7.57-3.48-2.54,1.21-13.33,6.24-14.15,8.55-.06.17-.28.1.08.38,1.16-1.69,12.92-8.47,13.92-8.32.1.01,1.13,1.49,1.13,1.59.02.73-8.88,9.25-8.85,11.58-3.71-1.49-10.89-5.88-7.34-10.52,1.91-2.5,6.53-4.82,9.38-6.13Z"></path><path class="st0" d="M44.45,65.13c.2.33.52.65,0,.61-3.88-.83-7.06.26-10.67,1.82-.1.04-1.12.47-.68.76-.82.1-.13-.08-.76-.61,7.83-3.58,11.82-2.94,19.9-4.09,4.07-.58,8.11-1.79,12.11-2.72.04-2.63.53-5.23,1.89-7.49.25-.42,1.77-1.9,1.82-2.12.1-.47-2.79-6.75-3.25-7.04-1.19-.74-1.83,1.22-2.42,1.82-1.46.28,1.01-1.9,1.13-2.12,0,0,.08.06.15-.15,2.91-.42,3.53,4.99,4.99,6.89-2.24,3.05-4.16,6-3.93,9.99.23.41,4.82-1.31,5.22-1.29.44.02.42.16.53.53-.06.27-1.71.73-2.04.83-2.54.78-6.28,1.59-8.93,2.12-5.1,1.02-10.23,1.7-15.44,1.97-.29.43.36.27.38.3Z"></path><path class="st2" d="M66.92,63.77c.13,0,.34-.04.38.08-3.67,2.18-7.7,3.88-11.27,6.28-1.13.76-6.81,5.68-7.26,5.75-.59.09-1.88-1.31-2.35-1.74,4.79-2.8,9.64-6.1,14.75-8.25.78-.33,5.28-2.1,5.75-2.12Z"></path><path class="st2" d="M44.45,65.74c.52.04.2-.28,0-.61,2.9-.13,5.82-.21,8.7-.61,3.94-.55,14.12-3.9,16.95-3.78.51.02.58-.1.53.53-8.54,1.61-17.33,6.82-26.1,4.77-.13-.03-.06-.3-.08-.3Z"></path><path class="st1" d="M61.25,67.71c-.07.54-.3,2.38-.45,2.72-.35.81-4.14,3.39-4.77,4.54.12-.73-.7-3.06-.53-3.56.02-.05.54-.45.76-.68,1-1.09,3.62-2.29,4.99-3.03Z"></path><path class="st0" d="M69.95,63.32l-13.77,18.61c-.6-.35,5.61-9.51,6.13-10.21,2.25-3.06,4.73-5.94,7.64-8.4Z"></path><path class="st4" d="M63.36,68.16c-.57.75-1.82,1.66-2.57,2.27.15-.34.38-2.18.45-2.72,1.13-.61,2.25-1.25,3.4-1.82-.89.81-.59,1.35-1.29,2.27Z"></path></g><g><path class="st2" d="M94.08,68.46c2.3,2.31,4.6,4.47,7.04,6.66.28.04,1.73-2.35,1.74-2.5.01-.19-.32-.51-.45-.68,5.49,3.53,10.7,7.39,12.03,14.22,1.29,0-2.47-7.63-3.33-8.02,3.84.89,7.35,3.02,8.4,7.04.34.2.52.08.45-.3-1.04-3.25-3.13-5.02-6.13-6.43-1.52-.71-3.6-.67-4.77-2.19.93-.58,1.72-1.4,2.8-1.74.47-.15,5.47-1.13,5.75-1.06,1.09.26,7.9,8.69,8.4,10.06.16.45.46.97.08,1.29-.47.38-5.73,1.38-6.66,1.51-19.17,2.67-18-9.12-28.07-20.05-.87-.95-1.92-1.72-2.88-2.57,2.5.67,3.95,3.11,5.6,4.77Z"></path><path class="st2" d="M112.39,64.83c0-.44.21-.19.3-.45,6.58.95,17.42,3.82,21.64,9.46,3.57,4.77-3.57,8.99-7.34,10.67-2.12-4.46-5.63-8.04-9-11.58l1.29-1.74c4.65,2.63,9.97,4.41,13.77,8.32.21-.19.25-.17.15-.45-.74-2.2-11.54-7.16-14-8.25l.23-.68c3.49-.43,7.02.19,10.44.76-2.4-1.07-7.03-1.55-9.84-1.36-.53.04-1.63.57-2.27.61-4.8.23-8.24-.15-12.18-3.1,1.75-.3,3.81.14,5.52-.08,1.02-.13,2.1-.9,2.88-1.06,3.27-.66,7.97,1.97,11.2,2.72l.15-.3c-3.19-.99-8.03-3.52-11.35-2.88s-5.19,1.56-9.08,1.06l-18.01-5.15c-.16-.09-.33-.4-.23-.53.22-.29,6.18,1.41,7.04,1.59,1.95.41,18.58,3.66,18.99,2.65.04-.09-.3,0-.3-.23Z"></path><path class="st2" d="M86.74,61.96l17.25,4.69c1.69.94,4.9,3.35,6.66,3.78,2.21.54,5.7.01,8.02,0,.71.3-1.21,2.46-1.82,2.72-.52.23-5.13,1.02-5.6.91-.24-.06-1.21-1.04-1.51-1.21-5.67-3.19-11.08-6.51-17.25-8.78-1.07-.39-5.1-1.19-5.6-1.51-.18-.12-.37-.47-.15-.61Z"></path><path class="st2" d="M92.27,65.44h.15c.6.24,1.23.49,1.82.76.32.14.77.67,1.21.53-.35-.32-.81-.46-1.21-.68-1.25-.68-2.57-1.21-3.86-1.82-.57-.44.55-.17.61-.15,2.03.54,6.29,2.51,8.32,3.48,3.93,1.87,7.86,4.31,11.43,6.73l-2.19,1.59c-2.24-1.83-4.52-3.74-6.96-5.3-2.69-1.72-7.01-3.32-9.31-5.15Z"></path><path class="st1" d="M102.41,71.94c.13.18.47.49.45.68-.01.15-1.46,2.54-1.74,2.5-2.44-2.18-4.74-4.35-7.04-6.66,0-.42.4-.95.83-.91.26.03,4.2,2.12,4.69,2.42.7.42,2.36,1.37,2.8,1.97Z"></path><path class="st2" d="M87.35,63.62c4.86,3.8,9.04,9.74,12.18,15.06.15.26,1.77,2.95,1.44,3.1-4.76-5.88-8.22-12.73-13.62-18.16Z"></path><path class="st4" d="M94.23,66.19v-.15c.4.22.86.36,1.21.68-.44.14-.9-.39-1.21-.53Z"></path><path class="st4" d="M92.42,65.44h-.15s-.52,0-.38-.3c.18-.07.49.29.53.3Z"></path></g></g><path class="st2" d="M69.49,50.15c.19.28.06.63-.15.3-.11-.16.06-.18.15-.3Z"></path><path class="st4" d="M63.67,43.64c0,.05.01.11,0,.15-.07.21-.15.14-.15.15-.02-.1-.1-.22-.15-.3h.3Z"></path><path class="st3" d="M80.16,48.49c-.75-.23-1.35-.76-1.44-.76-.08,0-.46.48-1.29.76-.41-1.54.46-.72.53-.76.13-.06.71-.6.76-.61.12,0,1.8.81,1.44,1.36Z"></path><path class="st1" d="M79.71,36.53c2.14-.1,1.19.29,1.97,1.13.62.67,2.33,2.16,3.03.83.1.07.6.27.76.3.08.47-.38.63-.61.91-.78.93-2.16,1.94-1.82,3.4.02.09,1.04,1.44,1.36,1.29.11.47.32.83.61,1.21-1.49.14-2.85-1.77-4.16-2.42-4.14-2.06-4.84,1.04-8.02,2.57-.07.03-.66.24-.53-.15,1.33-1.96.98-4.97-.61-6.73.13-.17.29-.26.45-.38.26.02.29.04.45-.15.02-.03-.02-.12,0-.15.48-.31,1.02-.5,1.51-.76-.12.8,1.39,1.31,1.89,1.21.55-.1,1.29-1.42,1.44-1.97.2,0,.31.15.91.15s.86-.29,1.06-.3c.1,0,.2,0,.3,0Z"></path><path class="st1" d="M84.85,39.71c-.63,1.46-.83,3.11-.45,4.69-.32.16-1.34-1.2-1.36-1.29-.35-1.46,1.04-2.47,1.82-3.4Z"></path><path class="st1" d="M77.44,36.68c-.14.55-.89,1.86-1.44,1.97-.5.09-2.01-.41-1.89-1.21.28-.15,1.5-.89,1.59-.91.6-.13,1.24.14,1.74.15Z"></path><path class="st1" d="M84.7,38.5c-.7,1.33-2.41-.16-3.03-.83-.78-.84.18-1.23-1.97-1.13,1.83-.7,3.54,1.02,4.99,1.97Z"></path><g><path class="st0" d="M86.06,46.52c-.22-.16-.93-.74-1.06-.91-.28-.38-.49-.74-.61-1.21-.38-1.58-.18-3.23.45-4.69.23-.27.68-.44.61-.91-1.44-1.47-4.01-3.86-6.05-2.27-.2,0-.48.31-1.06.3-2.03-1.53-4.31-.4-5.75,1.36-.02.03.02.12,0,.15-.29-.09-.32.06-.45.15-.17.11-.33.21-.45.38,1.58,1.77,1.93,4.77.61,6.73-.02.04-.55.56-.61.61-.97.55-1.67.55-2.72.23-.13.28,1.35,2.76,1.51,3.18.09.24.31.24-.08.53-1.85-2.72-3.94-6.52-2.04-9.76,1.12-1.92,1.89-1.18,2.95-1.74.09-.05,1.56-1.19,1.59-1.29.47-1.39-3.9-7.04-4.99-8.17s-7-5.31-7.11-5.75c-.57-2.22,2.95-.02,3.56.38,2.01,1.32,5.6,5.34,7.04,7.34.57.79,2.67,5,2.95,5.07.13.03,1.64-.74,2.57-.61.46.07,1.43.9,1.51.91.46.05,1.25-.83,1.82-.91.71-.1,2.49.54,2.72.45.28-.11,2.52-4.43,3.1-5.22,1.36-1.86,7.06-8.09,9.16-8.4.8-.12,1.53.18,1.29,1.13-.08.3-4.14,2.89-4.77,3.4-3.18,2.62-6.09,6.18-7.49,10.06,1.34,1.76,3.51,1.37,4.69,3.33,2,3.31-.18,7.32-2.35,9.91l1.74-3.71c-.83-.21-1.35.52-2.27-.08Z"></path><g><path class="st3" d="M95.82,22.91c.34.05.29.23.15.45-4.24,2.39-8.38,6.29-10.82,10.52-.29.51-1.13,2.91-1.29,2.95-.04.01-.52-.49-.53-.53-.08-.54,3.2-5.33,3.78-6.05,1.06-1.31,7.28-7.53,8.7-7.34Z"></path><path class="st3" d="M61.47,22.91c3.14.82,12.35,10.79,12.33,13.39-.02,2.1-1.58-2.18-1.82-2.57-3.01-5.12-6.11-6.53-10.21-10.06-.17-.15-.72-.51-.3-.76Z"></path><path class="st3" d="M85.46,38.8c-.16-.04-.66-.24-.76-.3-1.45-.95-3.17-2.67-4.99-1.97-.1,0-.2,0-.3,0,2.05-1.59,4.62.8,6.05,2.27Z"></path><path class="st3" d="M78.35,36.84c-.6,0-.71-.15-.91-.15-.5-.01-1.14-.28-1.74-.15-.09.02-1.31.76-1.59.91-.49.25-1.04.45-1.51.76,1.44-1.76,3.72-2.9,5.75-1.36Z"></path><path class="st4" d="M72.6,38.35c-.17.19-.2.18-.45.15.13-.09.17-.24.45-.15Z"></path><g><path class="st3" d="M86.29,39.26c3.51-.63,3.74,8.78-.15,6.66-2.12-1.15-1.56-6.35.15-6.66Z"></path><path class="st0" d="M86.14,39.86c1.56-.56,2.47,2.18.91,2.57-2,.5-1.75-2.27-.91-2.57Z"></path></g><g><path class="st3" d="M70.4,39.26c2.23-.25,3.17,5.64.76,6.66-3.92,1.64-3.47-6.35-.76-6.66Z"></path><path class="st0" d="M70.25,39.86c2.12-.58,1.86,3.62-.3,2.42-.92-.51-.45-2.22.3-2.42Z"></path></g></g></g><g><path class="st0" d="M112.7,64.38c-.09.27-.31.01-.3.45-8.62-.84-17.39-2.1-25.57-4.92-.04-.29.05-.5.38-.53.28-.02,5.17,1.8,5.37,1.44.08-1.91-.29-3.98-1.06-5.75-.43-.99-2.87-3.84-2.88-4.09-.01-.51,3.08-6.73,3.71-7.19.32-.23,1.15-.16,1.29-.38.23-.38.74-3.14,1.06-3.93.36-.89,1.42-3.31,2.5-3.4.54-.05,1,.47,1.06.45.34-.08.79-6.05,3.56-5.22-1.97.69-3.36,3.83-3.18,5.75.01.15.57,1.15.61,1.51.25,2.53-1.44,6.05-3.25,7.79-1.04-.56.04-.49.08-.53.79-.88,2.6-4.75,2.72-5.9.16-1.52-.61-4.92-2.42-2.72-.39.47-2.45,6.2-2.42,6.66.02.35,1.12,1.28,1.21,1.97.25,1.95-2.95,5.78-4.24,7.26,1.27,2.31,2.23,5.1,1.97,7.72,6.39,2.17,13.18,2.6,19.82,3.56Z"></path><g><path class="st3" d="M92.95,43.95c.78-.07,1.76,1.87,1.74,2.5-.03.9-3.44,6.54-4.31,6.28-.08-.02-.97-1.21-.98-1.29-.18-.8,2.75-7.42,3.56-7.49Z"></path><path class="st1" d="M93.93,46.82c-1.3.88-2.04,2.79-3.63,3.18.15-.59,2.07-5.31,2.35-5.45.97-.48,1.42,1.46,1.29,2.27Z"></path><path class="st4" d="M90.3,50c1.59-.39,2.33-2.3,3.63-3.18-.15.89-3.31,5.89-3.93,4.92.07-.58.16-1.17.3-1.74Z"></path></g></g><g><path class="st0" d="M43.01,49.09c2.14-.13,3.22,3.56,3.48,3.63.15.04,1.2-.22,1.97,0,1.06.31,1.97,1.69,2.72,2.12.08.05,1.25.14,1.51.3,2.87,1.74,3.05,2.61,4.62,5.37.15.26.78.71.76.76-.54.97-2.26-2.81-2.42-3.03-1.03-1.36-4.62-4.92-4.84-1.21-.19,3.1,2.41,4.27,4.99,4.69-1.4.26-4.1-.78-4.84-1.97-.41-.65-.29-1.56-.83-2.04-.96-.87-4.77-1.47-4.46-3.71.05-.39.6-.85.61-.91.09-1.12-2.99-4.44-4.54-3.03-.06-.36,1.03-.97,1.29-.98Z"></path><g><path class="st3" d="M46.79,53.03c.87-.29,4.01,1.44,4.16,2.04.03.12-.55,2.04-.68,2.35-1.05-.43-4.37-1.97-4.31-3.25,0-.13.66-1.08.83-1.13Z"></path><path class="st1" d="M46.95,53.33c.81-.29,4,1.63,3.4,2.5-.38.56-3.82-.86-3.93-1.36-.06-.24.27-1.04.53-1.13Z"></path></g></g><g><path class="st3" d="M106.04,55.15c.74-.2,4.57-3.76,5.15-1.29.37,1.61-4.13,3.83-4.54,3.33.21-.63-.6-1.62-.61-2.04Z"></path><path class="st1" d="M109.44,53.48c1.43-.16,1.77.77.61,1.51-.22.14-3.02.99-3.1.68-.22-.77,1.93-2.13,2.5-2.19Z"></path></g><g><path class="st1" d="M36.2,87.53c.09-.04.46-.03.53.08v29.36l41.84,24.14,41.99-24.14.08-29.43c.15.03.43-.08.53.08.14.22.13,4.45.15,5.15.25,8.2-.46,16.45-.15,24.67l-42.6,24.44-42.6-24.59.23-29.74Z"></path><path class="st4" d="M59.81,91.31c.22-.07,1,.03,1.13.23.79,1.13-1.05,8.95-2.35,9.61-.58.29-1.54.2-1.74-.53-.33-1.2,1.93-8.97,2.95-9.31Z"></path><path class="st4" d="M96.73,91.31c1.26-.75,2.69,3.61,2.95,4.46.38,1.25,2.11,6.44-.83,5.52-1.29-.4-3.34-9.26-2.12-9.99Z"></path><path class="st1" d="M51.86,94.79c-.24,1.9-.67,3.87-1.51,5.6-.89.89-1.41,2.05-2.72,2.42-1.11-.38-.43-2.47-.15-3.33.41-1.28,2.82-5.85,4.39-4.69Z"></path><path class="st1" d="M108.76,96.76l1.06,3.4v1.97l-.76.08c-.54-.31-1.02-.68-1.51-1.06-1.25-1.84-1.75-3.99-1.82-6.2.38-.18,1.16-.03,1.21-.61.97,1.01,1.13,1.15,1.82,2.42Z"></path><path class="st4" d="M99.61,102.36c1.13-.61,1.64,2.26,1.74,2.95.28,2.01.2,4.61-.68,6.43-2.62.19-1.51-9.14-1.06-9.38Z"></path><path class="st4" d="M56.93,102.21c1.52-.74,1.46,4.68,1.44,5.52-.02.79-.15,3.74-1.29,3.86-1.75.18-1.18-8.2-.15-9.38Z"></path><path class="st2" d="M96.81,99.79l.3-.3c1.2,3.12,4.23,3.03,3.93-.38-.11-1.3-1.94-6.51-2.72-7.57-.27-.36-.65-.43-.98-.68l.15-.3c1.8-.29,4.42,8.48,4.01,10.06-.28,1.11-1.93,1.28-2.27,1.66-.72.81-1.68,10.3,1.59,9.76,1.39-2.11,1.19-4.92.83-7.34-.02-.16-1.15-4.07-.3-2.72,1.01,1.6,1.58,9.5-.53,10.37-.87.36-2.26-1.13-2.5-1.89s-.11-5.68,0-6.66c.07-.57.78-1.58.76-1.66-.04-.16-1.59-.86-2.27-2.35Z"></path><path class="st4" d="M64.2,82.54l.38.08c-.71,1.1-1.54,7.75-3.1,7.64-.55-.27-1.02-.81-.98-1.44.03-.51,3.26-6.16,3.71-6.28Z"></path><path class="st4" d="M93.25,82.69c.32-.26,3.52,5.63,3.56,5.98.06.62-.82,1.57-1.29,1.59-1.26.05-2.14-6.4-2.27-7.57Z"></path><path class="st2" d="M47.47,99.48c-.28.86-.96,2.95.15,3.33,1.3.44,2.3-1.55,2.72-2.42.85-1.73,1.28-3.7,1.51-5.6.51.38.45.34.45.98.02,1.48-1.97,6.6-3.4,7.19-.81.33-1.99.24-2.35-.68-.6-1.57,1.97-8.01,4.16-8.4-1.3,1.71-2.78,3.42-3.25,5.6Z"></path><path class="st4" d="M67.6,76.33c.14.67-.25.85-.68,1.21-1.26,1.07-3.32,2.02-4.69,3.03l-.38-.38c-.02-.43.05-.88.15-1.29,1.36-.3,2.15-1.96,3.56-2.42.4-.13,1.64-.03,2.04-.15Z"></path><path class="st1" d="M67.53,74.67c.66-.05,1.65-.09,2.27.15-3.43.09-9.48,1.42-7.87,6.05l7.49-4.62c-2.3,2-4.62,4.7-7.79,5.07-2.11-3.91,2.55-6.4,5.9-6.66Z"></path><path class="st2" d="M56.18,101.91c.15-.09.55.02.3.3-1.04,1.42-1.62,9.23.15,9.68,2.89.75,2.25-8.2,1.59-9.61.29-.23.53.28.61.45.62,1.38.54,7.41-.45,8.63-3.07,3.75-3.5-3.69-3.33-5.45.05-.49.87-3.84,1.13-4.01Z"></path><path class="st2" d="M46.19,103.72c.21-.05.88.08.83.38-.11.75-7.76,6.49-3.63,8.63-1.94.56-2.03-1.73-1.66-3.18.25-.97,3.66-5.62,4.46-5.83Z"></path><path class="st2" d="M110.5,103.72c.9-.3,4.46,4.86,4.77,5.83.44,1.4.49,3.94-1.66,3.33,3.98-2.49-2.94-7.18-3.25-8.7-.04-.21-.08-.38.15-.45Z"></path><path class="st2" d="M105.74,94.94c.07,2.22.57,4.37,1.82,6.2.38.56,1.33,2.22,2.27,1.51.57-.43.09-3.73-.15-4.46-.18-.54-.74-1.13-.91-1.44-.69-1.27-.84-1.41-1.82-2.42-.23-.24-.61-.08-.38-.45,2.5-.07,6.45,10.74,2.12,9.08-1.69-.65-3.8-6.15-3.4-7.79.06-.26.35-.18.45-.23Z"></path><path class="st1" d="M63.14,82.54c.45,0,0,.52-.08.68-.57,1.09-2.96,4.46-3.03,5.45s1.47,2.77,2.57,1.36c.59-.75.59-2.27,1.36-2.88.08.94-.76,3.67-1.74,3.86-.58.11-2.1-.59-2.35-1.13-.85-1.85,2.08-5.85,3.25-7.34Z"></path><path class="st2" d="M59.13,101.3l.15.15c-2.29,1.6-3.56-.5-3.33-2.8.12-1.24,2.23-7.26,3.25-7.79.17-.09.71-.27.83-.08-.37.3-.94.66-1.21,1.06-.51.77-2.54,6.73-2.57,7.57-.05,1.6,1.43,2.89,2.88,1.89Z"></path><path class="st1" d="M94.01,82.23c1.17,1.42,4.24,5.91,3.4,7.64-.3.62-1.94,1.29-2.65.98-1.24-.53-2.07-4.67-1.44-4.16.68,1.36.76,4.74,2.95,3.56,2.71-1.46-1.83-6.03-2.27-8.02Z"></path><path class="st1" d="M59.28,101.45l-.15-.15c.88-.61,2.27-5.72,2.42-6.89.05-.36-.31-3.31.3-2.72.34,2.56-.37,8.22-2.57,9.76Z"></path><path class="st4" d="M67.6,76.33c-.4.12-1.64.02-2.04.15-1.41.46-2.19,2.13-3.56,2.42.61-2.47,5.15-3.52,7.34-3.63-.37.21-1.43.97-1.74,1.06Z"></path><path class="st0" d="M57.08,113.26c.51,0-1.22,5.69.68,6.13l-.08.38c-2.58-.78-1.53-4.75-.61-6.51Z"></path><path class="st0" d="M100.06,113.26c.52-.02,1.89,6.57-.61,6.66l.83-2.04c.17-.52-.7-4.6-.23-4.62Z"></path><path class="st2" d="M83.19,76.48v-.15c.47-.26,3.33-2.89,3.78-3.4,1.47-1.67,2.23-3.63,3.18-5.45-.4,4.49-4.15,6.34-6.96,9Z"></path><path class="st1" d="M97.11,99.48l-.3.3c-.65-1.42-1.65-6.22-1.36-7.64.06-.28.2-.35.38-.53.26.91-.06,2.02.08,2.95s.91,4.12,1.21,4.92Z"></path><path class="st2" d="M67.07,67.55c1.01,2.28,1.99,4.28,3.78,6.05.82.81,2.49,1.41,2.88,2.57-3-2.14-6.1-4.75-6.66-8.63Z"></path><path class="st1" d="M60.41,81.63c.21,0,.25.1.38.23-.24.21-3.67,2.56-3.63,1.66.6-.16,2.9-1.88,3.25-1.89Z"></path><path class="st1" d="M96.73,81.33l3.56,2.35c-.18.35-3.67-1.53-3.56-2.35Z"></path><g><path class="st2" d="M87.27,90.1l.61,5.3c-.34.13-.78.23-1.06.45-6.04.23-10.18,1.91-16.65,0-.08-.02-.44-.25-.61-.3l.3-5.45c4.09,1.15,13.27,1.08,17.4,0Z"></path><path class="st4" d="M89.24,99.79c-.54.22-.93.41-1.51.61-5.2,1.7-12.32,1.96-17.55.3-.28-.09-.5-.2-.76-.3.94-.79.18-2.73.3-4.01.04-.41-.15-.6.45-.53,6.46,1.91,10.61.23,16.65,0,.2,0,1.03-.13,1.06-.08l-.15,4.24,1.51-.23Z"></path><path class="st4" d="M85.46,85.11c.34.72,1.52,4.28,1.66,4.46.51.63.93-.39,1.36.08-.4.14-.81.35-1.21.45-4.13,1.08-13.31,1.15-17.4,0-.54-.15-1.14-.55-1.66-.76l1.51.23,1.21-4.77c4.16,1.37,10.3,1.32,14.53.3Z"></path><path class="st3" d="M89.39,109.17c.13-.38.56-1.02.23-1.36-.56.21-1.4.89-1.89,1.06-5.1,1.77-11.6,1.95-16.8.45-.54-.16-1.14-.56-1.66-.76l1.21.23c.45-.78-.6-3.36.61-3.25,4.71,1.3,11.4,1.07,16.04-.45.45-.15,3.55-1.49,3.71-1.66.32-.37.46-2,.53-2.57.36.14.47.98.45,1.29-.02.4-1.41,6.15-1.66,6.66-.3.61-.03.46-.76.38Z"></path><path class="st2" d="M87.73,100.39l-.61,4.69c-4.64,1.53-11.33,1.75-16.04.45-.17-.05-.67-.42-.76-.45l-.15-4.39c5.24,1.66,12.36,1.4,17.55-.3Z"></path><path class="st2" d="M73.65,80.11c.1-.05.2-.1.3-.15,2.06,2.04,6.26,1.59,8.78.61.04-.02.11.02.15,0,1.14,1.39,1.82,2.93,2.57,4.54-4.23,1.02-10.36,1.07-14.53-.3-.36-.12-.71-.3-1.06-.45.58-.63.92-4.6,1.74-4.54.7,1.95.77.93,2.04.3Z"></path><path class="st0" d="M71.46,74.97l-3.4,4.92c-6.04,11.78-3.95,29.67,5.3,39.34.7.73,4.17,3.74,4.92,4.01.87.31,2.89-1.36,3.63-1.97,12.27-10.07,14.58-34.37,3.71-46.23,11.01,9.97,9.03,32.11.3,42.98-.98,1.22-5.54,5.81-6.89,5.98-2.08.27-7.81-6.2-9-7.94-7.48-10.93-8.92-31.45,1.44-41.09Z"></path><path class="st1" d="M87.73,108.87l-4.09,4.69c-3.96.9-10.54,1.09-13.92-1.51,1.4.49,1.16-1.75,1.21-2.72,5.19,1.5,11.7,1.32,16.8-.45Z"></path><path class="st1" d="M89.39,82.84c.1.22.19.33.3.53-1.27.78-2.77,1.39-4.24,1.74-.75-1.61-1.44-3.15-2.57-4.54,1.32-.56,2.05-1.34,3.1-2.27.28.04,3.16,4.02,3.4,4.54Z"></path><path class="st1" d="M68.21,89.35c.52.2,1.13.61,1.66.76l-.3,5.45c-.76-.26-3.72-1.47-3.93-2.19-.13-.42.09-4.5.3-4.84.56-.18,1.57.56,2.27.83Z"></path><path class="st1" d="M87.88,95.4l-.61-5.3c.4-.1.81-.32,1.21-.45.92-.32,1.76-1.04,2.72-1.29.18.19.43,4.76.3,5.15-.17.51-3.02,1.65-3.63,1.89Z"></path><path class="st1" d="M69.42,100.39c.26.1.48.21.76.3l.15,4.39c-4.39-1.5-4.37-2.07-4.77-6.81,1.22.84,2.46,1.59,3.86,2.12Z"></path><path class="st1" d="M91.36,100.85c-.07.57-.21,2.2-.53,2.57-.15.18-3.26,1.52-3.71,1.66l.61-4.69c.58-.19.98-.39,1.51-.61.78-.31,1.53-.69,2.19-1.21.27.65,0,1.58-.08,2.27Z"></path><path class="st1" d="M76.83,120.67l3.78-3.18c.88-.1,2.28-.33,3.1-.61s1.52-1,2.35-1.13c-2.55,2.74-5.04,6.72-9.23,4.92Z"></path><path class="st1" d="M80.62,117.49l-3.78,3.18c-2-.86-3.88-2.9-5.07-4.69,2.79,1.51,5.72,1.86,8.85,1.51Z"></path><path class="st1" d="M71.38,78.6c.24.12.49.44.76.61.37.24.27.29.91.61.13.07.34.39.61.3-1.27.63-1.34,1.64-2.04-.3-.82-.06-1.16,3.91-1.74,4.54-.52-.24-2.23-1.02-2.27-1.59-.04-.46,2.13-3.95,2.57-4.46.38.26,1.15.27,1.21.3Z"></path><path class="st1" d="M89.39,109.17c-1.07,3.23-2.61,3.68-5.75,4.39l4.09-4.69c.49-.17,1.33-.85,1.89-1.06.34.34-.1.98-.23,1.36Z"></path><path class="st1" d="M69.27,108.56c.53.2,1.13.6,1.66.76-.05.97.19,3.21-1.21,2.72-1.35-1.04-1.6-2.51-2.27-4.01.18-.29,1.5.41,1.82.53Z"></path><path class="st3" d="M75.02,76.79s.08.45.45.45v.15c-.77.86-1.6,1.62-2.42,2.42-.64-.31-.54-.37-.91-.61.69-.3.92-1.1,1.29-1.51.16-.18.68-.19.83-.38.05-.06-.46-1.37.76-.53Z"></path><path class="st4" d="M71.38,78.6c-.06-.03-.83-.04-1.21-.3.5-.57.54,0,.68-.15.59-.61.83-1.43,1.51-1.97.36.24-.78,2.1-.98,2.42Z"></path><path class="st4" d="M75.47,77.24c-.38,0-.43-.44-.45-.45l-.38-1.21.76,1.36.23-.68-.15.98Z"></path><polygon class="st1" points="74.18 76.18 74.34 76.33 74.34 76.48 74.18 76.48 74.18 76.18"></polygon><path class="st1" d="M82.73,80.57c-2.52.99-6.71,1.43-8.78-.61,3.58-1.79,5.5-2.67,8.78.61Z"></path><g><path class="st4" d="M83.19,76.33v.15c-.25.23-.47.06-.45.38.92,1.4,2.71,3.48.98.23.25.09,1.56,1.95,1.74,1.13.06-.27-1.83-2.24-.68-2.19.47.02,3.79,4.23,4.16,4.92.2.38.89,1.6.45,1.89-.24-.52-3.12-4.5-3.4-4.54-1.05.93-1.78,1.71-3.1,2.27-.04.02-.11-.02-.15,0-3.28-3.28-5.2-2.4-8.78-.61-.1.05-.2.1-.3.15-.26.08-.47-.24-.61-.3.82-.81,1.65-1.56,2.42-2.42.12-.13.46-.14.61-.38-.35-.63-.1-.63.23-.08l.3-.61.15.61.3-1.06c.54,1.68.17.38.45.15.56-.46,1.22,1.71,1.36,0l.3.76.61-.61c.09.9.53.84.61,0l.3.76.61-.76.15.76c1.23-1.69.31.2,1.74-.61Z"></path><path class="st3" d="M81.9,76.79c.29-.03,1.95,2.06,1.51,2.57l-2.35-1.29c.58-.51.61-.57.83-1.29Z"></path></g></g><path class="st3" d="M50.35,100.39c-.43.87-1.43,2.86-2.72,2.42,1.31-.37,1.84-1.53,2.72-2.42Z"></path><path class="st1" d="M109.82,102.66c-.18-.24-.5-.31-.76-.45l.76-.08v-1.97l-1.06-3.4c.17.31.73.9.91,1.44.24.73.72,4.04.15,4.46Z"></path><path class="st3" d="M109.06,102.21c.25.15.57.22.76.45-.94.71-1.89-.95-2.27-1.51.49.38.97.75,1.51,1.06Z"></path><g><path class="st1" d="M88.03,76.33c.73.56,6.48,4.41,6.89,4.39.21-.01.25-.08.38-.23.72-4.93-4.87-5.51-8.47-5.83.37-.87,6.31.73,7.34,1.51,1.35,1.04,2.85,4.99.76,4.99-1.53,0-5.86-3.54-6.89-4.84Z"></path><path class="st3" d="M88.03,76.33c-.5-.38-1.56-.86-1.21-1.66,3.61.31,9.2.9,8.47,5.83-.13.14-.17.21-.38.23-.41.02-6.15-3.83-6.89-4.39Z"></path><path class="st4" d="M94.84,80.27c-1-2.53-3-3.38-5.3-4.39-.19-.09-.72-.11-.98-.3-.31-.39,1.67-.06,1.97,0,1.52.31,4,1.32,4.46,2.95.13.45.36,1.58-.15,1.74Z"></path><path class="st4" d="M94.84,80.27c-.39.12-4.8-3-5.22-3.48-.34-.39-.45-.48-.08-.91,2.3,1.01,4.3,1.86,5.3,4.39Z"></path></g><g><path class="st2" d="M56.18,83.9c4.25-.75-.44,9.99-2.12,10.74-1.14.51-3.16-.51-3.4-1.59-.4-1.79,3.82-8.86,5.52-9.16Z"></path><path class="st3" d="M56.33,84.2c3.3-.57-.72,8.13-1.59,9.16-1.61,1.91-3.94.79-3.63-1.51.15-1.11,4.18-7.46,5.22-7.64Z"></path><path class="st1" d="M56.78,84.81c1.31,0-1.24,6.21-1.59,6.89-.51.98-1.16,2.41-2.5,2.19s-1.16-1.69-.83-2.65c.27-.79,4.47-6.43,4.92-6.43Z"></path></g><g><path class="st2" d="M100.51,84.05c.11-.03.8-.03.91,0,.98.28,4.78,6.06,5.07,7.19.73,2.88-2.05,4.89-4.24,2.27-1.07-1.28-4.17-8.78-1.74-9.46Z"></path><path class="st3" d="M100.67,84.35c.62-.16,1.57,1.06,2.04,1.59,1.29,1.43,5.42,7.29,2.19,8.4-1.83.63-2.95-2.06-3.56-3.4-.5-1.12-2.49-6.12-.68-6.58Z"></path><path class="st4" d="M104.52,89.5l-.83,1.66-2.19-1.51c-.48-1.3-1.81-3.54-.83-4.69.91-.24,3.46,3.75,3.86,4.54Z"></path><path class="st1" d="M104.52,89.5c.5.98,2.25,4.35-.08,4.54-1.63.14-2.54-3.27-2.95-4.39l2.19,1.51.83-1.66Z"></path></g></g></g></g></g></svg>