<?xml version="1.0" encoding="UTF-8"?>
<svg id="Layer_1" xmlns="http://www.w3.org/2000/svg" version="1.1" viewBox="0 0 109 131">
  <!-- Generator: Adobe Illustrator 29.1.0, SVG Export Plug-In . SVG Version: 2.1.0 Build 142)  -->
  <defs>
    <style>
      .st0 {
        fill: #fff;
      }
    </style>
  </defs>
  <path d="M60.38,3.92c.18.14,3.74,1.21,4.26,1.32.44.1.89-.19,1.21-.12,2.05.44,6.14,1.86,5.77,4.61-.12.87-1.19,3.55-2.06,3.94,1.45,2.14,2.51,4.51,3.96,6.65,2.84,4.18,5.05,6.39,7.12,11.12.31.71,1.54,1.65,1.93,2.42.37.74.35,1.56.74,2.26.43.76,1.44,1.19,1.98,1.83,1.86,2.19,5.83,8.18,7.45,10.79,1.24,2,2.69,5.98,4.17,7.54.84.88,1.43.88,2.17,2.46,3.09,6.54,5,10.8,6.53,18,.92,4.32,2.56,8.58,2.6,12.91.05,6.19-1.81,11.51-4.35,16.62-1.44,2.89-2.55,5.96-3.51,8.72-.65,1.88,1.14,2.97-.68,6.67-.28.58.18,1.43-.72.81.04.73-1.06,2.11-1.86,2l-.05.45-.54-.54c-.18,1.53-.57.79-.77.89-.07.04-.04.36-.18.4-.68.19-2.5.26-3.31.3-2.53.13-1.55.02-3.44-.84s-3.3-.55-5.23-.69c-.42.45-1.04.73-1.75,1.18-2.38,1.5-2.09,1.19-5.05,2.08-1.63.49-3.07,1.33-4.75,1.95-.78.29-11.12,1.35-11.84,1.14-.6-.18-.98-.74-1.86-.88s-2.84.71-3.59.41c-.21-.08-.19-.54-.59-.71-1.55-.66-6.01-.47-7.64-1.35-2.29-1.23-4.82-2.52-7.08-4.07-2.69-1.84-4.8-3.68-6.91-6.3-.04-.06-.4.14-.5.05-.73-.64-1.94-1.23-3-1.55-2.34-.7-3.31.44-4,.29-.58-.13-1.33-.92-2.13-.91-2.36.02-4.37.65-7.07.08-1.46-.3-3.9-1.76-5.5-2.63-1.6-.87-1.4-1.22-2.31-1.88-1.18-.85-.86-.7-1.97-1.98-.86-.99-2.14-1.23-2.06-2.98l-.52.26-1.01-2.63c-1.29-1.03-2.03-4.31-1.98-5.92.03-1.29.17-3.9.28-5.16.03-.33,1-4.35,1.11-4.59.64-1.34,2.69-1.85,3.75-2.8-.65-.41-.71-1.11-1.08-1.65-.16-.23-.58-.28-.73-.48-1.58-2.19-2.53-3.76-2.55-6.57,0-.98.37-2.89.29-3.8-.04-.48-.5-.84-.48-1.34.04-1.01,1.56-3.78,2.39-4.4,1.7-1.28,4.96-.78,6.93-.96,4.44-.41,8.74-.52,12.64-2.87,5.37-3.23,8.63-11.36,13.48-15.92.62-.58,3.18-2.27,3.41-2.64.26-.42.77-2.97.77-3.52.03-3.16-2.65-4.24-4.32-6.47-.72-.1-1.28-.42-2.04-.48-2.19-.16-6.5,0-8.77.12-.64.03-1.18.47-1.83.44-.97-.04-2.42-.96-3.7-.54.33-.57-.11-.87-.56-1.21-2.75-2.01-6.44-2.76-8.69-5.74-.35-.46-.77-1.7-.85-1.75-.25-.17-1.04.55-1.88-.42-1.11-1.26-.85-3.59.04-4.88,1.06-1.53,3.26-2.87,4.73-3.98.38-.29.49-.87.97-1.21,2.11-1.47,5.74-2.36,7.74-3.96,1.53-1.22,2.68-3.73,4.31-5.08,1.5-1.25,6.67-3.99,8.56-4.64,4.77-1.65,14.73-1.85,19.59-.43.87.26,2.65,1.35,3.24,1.38.53.02.83-.54,1.46-.38.93.25,1.26,1.37,1.7,1.72v.04h.01ZM61.17,6.64c-.78-.37-.26-.24-1.43-.59-2.56-.76-4.37-2.86-7-3.65-8.83-1.73-21.79-.04-27.67,7.33-.4.5-.53,1.24-.96,1.76-1.83,2.19-4.77,2.67-7.17,4.26l-5.78,4.31c.9,1.81-.85,3.08.3,4.9,1.72,2.72,6.76,5.82,9.64,7.23,2.3,1.13,2.22.32,4.22.38.79.02,5.36.8,5.58.57.18-.2-.58-1.24.98-1.35.74-.05,2.12.38,2.89.61,1.18.35,4.43,1.6,5.46,2.17.3.16.53.35.74.62l-.81.54c.52.96,3.72,4.75,3.72,5.45,0,.37-.85.99.1,1.37.45.18,3.13-1,4.01-1.17.58-.11,4.53-.51,4.69-.34v.94c-2.3.45-4.41,1.42-6.6,2.15-.5.17-.98-.09-1.49.09-.34.12-.73.92-1.12,1.15-.83.48-2.18.75-3.06,1.24-4.3,2.39-8.57,10.18-11.79,14.07-.45.55-1.06,1.81-1.32,2.08-1.41,1.4-4.86,2.91-6.65,3.83-.7.36-.96,1.24-1.71.87l.54,1.63c-1.61,1-2.18-.88-2.59-1.05-.34-.14-6.7,0-7.38.06-.68.06-4.77.58-4.94.76.16.79-.72,1.19-1.11,2.03-.54,1.13-.68,4.69-.58,5.96.14,1.8,1.59,4.13,2.72,5.46.63.73,1.71.84,1.66,2.02l1.36-.14c.44,2.08,2.21.69,3.88,1.58.6.32.59.82.92,1.05.63.43,2.02.51,2.78.96.72.42,1.15,1.38,1.92,1.75.02-1.29.32-3.79.97-4.89.28-.46,4.53-4.92,5.14-5.48.61-.56,1.34-1.02,2.16-1.09l.54.57c2.78-.76,7.21-2.1,10.04-1.31,1.8.5,2,.6,3.95.94,1.12.19,2.35,1.55,3.22,1.64.71.07,1.9-.42,2.69-.46,3.63-.16,6.32.09,9.62-1.95-.34-1.42.26-2.22.5-3.45.19-.96.41-3.76.9-4.28.88-.94,1.97.11,2.13,1.09.06.39-.92,5.39-1.11,6,0,.04-.27.57-.29.61-.05.09-1.21,1.49-1.3,1.55-.56.41-2.33.79-3.16,1.2-.68.33-1.21.99-1.99,1.14.04.55,3.99,1.38,3.26,2.17-1.78.77-3.31-.45-4.82-.75-1.06-.21-2.93-.18-3.91-.5-1.47-.48-5.5-2.66-6.65-2.81-1.32-.18-2.76.18-3.97.09-1.27-.09-2.31-.8-3.63-.67-2.24.21-3.67,1.74-5.32,2.86-1.99,1.34-2.73,1.06-3.97,3.21-.08.14-.56.96-.64,1.15-.98,2.28-.51,4.76.35,7.02.19.52.87,1.08.94,1.47.05.34-.28.69-.07,1.18.35.82,1.88,1.05,2.34,1.51.3.29-.15.74.37,1.23.61.58,2.58.61,2.31,1.73-.42,1.71-4.38-.26-5.27-.53-.3-.09-.76.17-1.22.03-.97-.31-2.73-2.19-3.13-3.14-.76-1.83-.64-4.52-.71-6.5-.75-.44-1.7.06-2.42-.17-.72-.23-1.68-1.07-2.45-1.36-2.82-1.06-6.98-2.29-9.03.62-.09.06-.41-.23-.46-.19-.1.08-.96,2.06-1.01,2.33-.3,1.81,0,7.14.45,8.93,1.18,4.85,7.27,11.01,12.16,12.07,3.63.78,7.06-.22,10.51.14.41.04,1.13.71,1.78.9.96.28,3.35.21,3.85.79.22.26.14.77.43.99.81.61,3.94,1.7,4.98,2.3.42.24,1.85,2.22,2.6,2.84,1.08.89,4.57,3.25,5.77,3.76,1.14.48,2.36.39,3.35.73.72.25,1.02,1.09,1.76,1.23.92.18,2.18-.08,3.22.04,3.96.45,7.23,2.11,11.43,1.57,3.24-.42,5.76-2.03,8.87-2.7l.14.82c1.56-1.07,3.73-1.12,5.59-1.76,1.24-.43,2.38-1.38,3.77-1.54.07-2.5-.96-5.27.99-7.32.58.99.23,2.32.7,3.33.1.22.46.23.61.55.76,1.65.15,1.79,2.1,2.79,1.95,1,3.62,1.46,5.85,1.23,2.11-.22,1.46-1.05,1.75-1.22.49-.29,1.17-.12,1.8-.67,1.41-1.26,2.22-5.23.66-6.68l.56-.54c-1-1.34-2.16-2.36-1.63-4.23l1.35.96c.33.28.45.11.68-.15.51-.58,1.52-3.58,2-4.54,2.84-5.69,6.1-12.23,5.05-18.83-.44-2.78-1.35-7.23-2.04-9.97-.4-1.57-1.4-3.27-1.8-4.74-.62-2.26-.24-3.22-1.45-5.57-3.96-7.71-8.44-15.64-13.37-22.9-2.55-3.76-5.78-7.5-8.34-11.26-1.62-2.37-3.03-5.32-4.68-7.78-1.65-2.46-3.85-4.37-5.02-7.02-.34-.77-1.03-3.72-1.29-4.02-.26-.3-1.38-.24-1.72-.88-.68-1.01,1.72-2.06,1.79-2.38.64-2.6-2.01-2.22-3.69-2.79-.83-.29-2.73-.88-3.34-1.18h-.03Z"/>
  <path class="st0" d="M61.17,6.64c.61.29,2.51.89,3.34,1.18,1.68.58,4.33.2,3.69,2.79-.08.32-2.48,1.37-1.79,2.38.34.64,1.48.58,1.72.88.24.3.94,3.25,1.29,4.02,1.17,2.65,3.44,4.66,5.02,7.02,1.58,2.36,3.07,5.41,4.68,7.78,2.57,3.76,5.79,7.5,8.34,11.26,4.93,7.26,9.41,15.19,13.37,22.9,1.21,2.35.83,3.31,1.45,5.57.4,1.47,1.4,3.16,1.8,4.74.69,2.73,1.6,7.18,2.04,9.97,1.04,6.6-2.22,13.14-5.05,18.83-.48.96-1.49,3.96-2,4.54-.23.26-.36.43-.68.15l-1.35-.96c-.53,1.87.63,2.89,1.63,4.23l-.56.54c1.56,1.45.75,5.43-.66,6.68-.63.56-1.31.38-1.8.67-.29.18.36,1-1.75,1.22-2.23.24-3.89-.22-5.85-1.23-1.96-1.01-1.33-1.14-2.1-2.79-.15-.32-.5-.32-.61-.55-.46-1.01-.12-2.34-.7-3.33-1.95,2.05-.92,4.82-.99,7.32-1.39.16-2.52,1.11-3.77,1.54-1.86.64-4.03.69-5.59,1.76l-.14-.82c-3.12.67-5.63,2.28-8.87,2.7-4.2.54-7.47-1.12-11.43-1.57-1.04-.12-2.3.14-3.22-.04-.75-.14-1.04-.98-1.76-1.23-.99-.34-2.21-.25-3.35-.73-1.2-.51-4.69-2.87-5.77-3.76-.75-.62-2.19-2.6-2.6-2.84-1.04-.6-4.17-1.69-4.98-2.3-.28-.21-.21-.73-.43-.99-.49-.58-2.89-.51-3.85-.79-.65-.19-1.37-.85-1.78-.9-3.45-.37-6.88.64-10.51-.14-4.89-1.05-10.98-7.22-12.16-12.07-.44-1.79-.75-7.12-.45-8.93.05-.27.91-2.25,1.01-2.33.05-.04.37.25.46.19,2.05-2.92,6.21-1.68,9.03-.62.77.29,1.72,1.12,2.45,1.36.73.24,1.67-.28,2.42.17.08,1.99-.05,4.67.71,6.5.4.95,2.16,2.83,3.13,3.14.46.15.92-.12,1.22-.03.89.27,4.85,2.24,5.27.53.28-1.12-1.7-1.15-2.31-1.73-.52-.49-.07-.94-.37-1.23-.46-.46-1.99-.69-2.34-1.51-.21-.49.12-.83.07-1.18-.06-.39-.74-.96-.94-1.47-.86-2.27-1.33-4.74-.35-7.02.08-.19.56-1.01.64-1.15,1.24-2.15,1.98-1.87,3.97-3.21,1.66-1.12,3.09-2.65,5.32-2.86,1.32-.12,2.37.58,3.63.67,1.26.09,2.65-.28,3.97-.09,1.15.16,5.19,2.33,6.65,2.81.98.32,2.85.28,3.91.5,1.51.3,3.04,1.52,4.82.75.73-.79-3.22-1.63-3.26-2.17.78-.15,1.31-.81,1.99-1.14.83-.4,2.59-.79,3.16-1.2.08-.06,1.24-1.46,1.3-1.55.02-.04.28-.57.29-.61.19-.61,1.17-5.61,1.11-6-.16-.98-1.25-2.03-2.13-1.09-.48.52-.71,3.32-.9,4.28-.24,1.23-.84,2.03-.5,3.45-3.29,2.04-5.99,1.78-9.62,1.95-.8.04-1.98.53-2.69.46-.86-.09-2.09-1.44-3.22-1.64-1.95-.34-2.15-.44-3.95-.94-2.82-.79-7.26.55-10.04,1.31l-.54-.57c-.82.08-1.57.55-2.16,1.09-.59.54-4.86,5.02-5.14,5.48-.66,1.09-.96,3.59-.97,4.89-.78-.37-1.21-1.33-1.92-1.75-.76-.45-2.15-.53-2.78-.96-.34-.23-.33-.73-.92-1.05-1.67-.89-3.44.5-3.88-1.58l-1.36.14c.05-1.18-1.03-1.28-1.66-2.02-1.13-1.32-2.58-3.65-2.72-5.46-.1-1.27.04-4.83.58-5.96.4-.84,1.27-1.24,1.11-2.03.17-.19,4.24-.7,4.94-.76.7-.06,7.04-.2,7.38-.06.41.17.98,2.05,2.59,1.05l-.54-1.63c.76.37,1.02-.51,1.71-.87,1.79-.92,5.24-2.43,6.65-3.83.27-.27.87-1.53,1.32-2.08,3.22-3.9,7.49-11.68,11.79-14.07.88-.49,2.23-.76,3.06-1.24.39-.23.78-1.04,1.12-1.15.51-.18.99.08,1.49-.09,2.19-.74,4.3-1.7,6.61-2.15v-.94c-.18-.17-4.12.23-4.71.34-.88.17-3.56,1.35-4.01,1.17-.94-.38-.1-1-.1-1.37,0-.7-3.2-4.49-3.72-5.45l.81-.54c-.21-.27-.44-.46-.74-.62-1.03-.56-4.27-1.81-5.46-2.17-.76-.23-2.14-.66-2.89-.61-1.56.1-.8,1.15-.98,1.35-.22.24-4.79-.54-5.58-.57-2-.06-1.92.75-4.22-.38-2.88-1.41-7.92-4.52-9.64-7.23-1.15-1.81.6-3.09-.3-4.9l5.78-4.31c2.4-1.59,5.34-2.07,7.17-4.26.44-.52.57-1.26.96-1.76C30.91,2.36,43.86.67,52.7,2.4c2.63.79,4.43,2.89,7,3.65,1.16.34.65.21,1.43.59h.04ZM51.51,18.52c1.04,3.33-2.14,4.36-4.96,4.01-1.23-.15-2.49-1.33-3.67-.42-1.55,1.42,3.58,2.39,4.22,2.46,2.18.24,4.15-.63,5.26-2.5,1.29-2.17,1.36-3.84-.5-5.68-.88-.87-5.89-4.19-6.92-3.93-.7.36-.35,1.05.13,1.47.76.68,2.82,1.58,3.88,2.38.96.72,1.64,1.48,2.55,2.21h0ZM28.95,18.37c.28-.2.42-.86.08-1.17-.34-.31-3.4-1.56-3.68-1.24-2.28,2.63,2.46,3.23,3.6,2.4h0ZM49.96,20.88c-.96-2.75-3.69-4.66-6.52-5.16-.12,1.08-1.26,2.23-.27,3.11.37.33,5.08,2.12,5.69,2.22.44.06.7-.09,1.09-.16h0Z"/>
  <path d="M51.51,18.52c-.91-.72-1.59-1.49-2.55-2.21-1.06-.8-3.11-1.7-3.88-2.38-.48-.42-.83-1.11-.13-1.47,1.03-.26,6.04,3.06,6.92,3.93,1.86,1.84,1.79,3.51.5,5.68-1.12,1.88-3.08,2.75-5.26,2.5-.65-.07-5.77-1.03-4.22-2.46,1.18-.92,2.44.26,3.67.42,2.82.35,6-.68,4.96-4.01h-.01Z"/>
  <path d="M49.96,20.88c-.4.07-.66.22-1.09.16-.62-.09-5.32-1.89-5.69-2.22-.99-.88.15-2.03.27-3.11,2.83.51,5.56,2.41,6.52,5.16h-.01Z"/>
  <path d="M28.95,18.37c-1.14.83-5.88.23-3.6-2.4.28-.32,3.34.94,3.68,1.24.34.3.2.96-.08,1.17h0Z"/>
</svg>